<?xml version="1.0" encoding="UTF-8"?> <svg xmlns="http://www.w3.org/2000/svg" width="496" height="124" viewBox="0 0 496 124" fill="none"> <path d="M303.118 76.6166C293.27 76.6166 289.539 70.4095 289.211 63.128H322.276V60.0841C322.276 47.1028 314.219 39.5527 301.984 39.5527C289.748 39.5527 281.184 47.3714 281.184 60.9197C281.184 73.0654 287.719 83.4803 303.088 83.4803C316.845 83.4803 322.336 74.3188 323.709 67.7834H315.472C314.07 73.5727 309.653 76.6166 303.118 76.6166ZM302.013 46.3269C310.339 46.3269 314.308 51.3404 314.308 57.3685H289.181C289.181 51.3404 293.866 46.3269 302.013 46.3269Z" fill="#0069F7"></path> <path d="M487.765 67.7834C486.333 73.5429 481.916 76.6166 475.381 76.6166C465.533 76.6166 461.802 70.4095 461.474 63.128H494.569V60.0841C494.569 47.1028 486.512 39.5527 474.276 39.5527C462.041 39.5527 453.477 47.3714 453.477 60.9197C453.477 73.0654 460.012 83.4803 475.381 83.4803C489.138 83.4803 494.629 74.3188 496.002 67.7834H487.765ZM474.276 46.3269C482.602 46.3269 486.571 51.3404 486.571 57.3685H461.444C461.444 51.3404 466.13 46.3269 474.276 46.3269Z" fill="#0069F7"></path> <path d="M164.931 39.5156C155.173 39.5156 149.831 44.7678 147.951 51.154H147.115V45.8123V40.381H138.879V98.1553H147.115V77.2062V71.7749H147.951C149.831 78.2208 155.173 83.473 164.931 83.473C177.226 83.473 184.776 73.9832 184.776 61.5092C184.776 49.0353 177.226 39.5156 164.931 39.5156ZM162.126 76.3408C153.651 76.3408 147.115 71.9241 147.115 61.4794C147.115 51.0347 153.651 46.618 162.126 46.618C170.512 46.618 176.54 51.1242 176.54 61.4794C176.54 71.8644 170.512 76.3408 162.126 76.3408Z" fill="#0069F7"></path> <path d="M254.822 39.5156C245.063 39.5156 239.722 44.7678 237.842 51.154H237.006V40.381H228.77V98.1553H237.006V71.7749H237.842C239.722 78.2208 245.063 83.473 254.822 83.473C267.117 83.473 274.667 73.9832 274.667 61.5092C274.697 49.0353 267.117 39.5156 254.822 39.5156ZM252.016 76.3408C243.541 76.3408 237.036 71.954 237.006 61.5391V61.4197C237.036 51.0347 243.541 46.618 252.016 46.618C260.402 46.618 266.43 51.1242 266.43 61.4794C266.46 71.8644 260.432 76.3408 252.016 76.3408Z" fill="#0069F7"></path> <path d="M347.278 27.7113C347.278 23.981 345.637 21.7727 342.175 21.6832V21.6533H329.999V28.7856H330.059H339.042V28.8154V75.5183H327.254V82.6505H359.155V75.5183H347.278V27.7113Z" fill="#0069F7"></path> <path d="M204.096 33.3467C207.319 33.3467 209.676 31.198 209.676 28.184C209.676 25.2595 207.319 23.1108 204.096 23.1108C200.932 23.1108 198.664 25.2595 198.664 28.184C198.635 31.198 200.932 33.3467 204.096 33.3467Z" fill="#0069F7"></path> <path d="M209.176 44.9469C209.176 41.6941 207.773 39.5156 204.819 39.5156H192.196V40.3512V46.618H201.268V46.7076V75.4753H189.391V82.6076H221.053V75.4753H209.176V44.9469V44.9469Z" fill="#0069F7"></path> <path d="M379.798 33.3467C383.021 33.3467 385.379 31.198 385.379 28.184C385.379 25.2595 383.021 23.1108 379.798 23.1108C376.635 23.1108 374.367 25.2595 374.367 28.184C374.367 31.198 376.665 33.3467 379.798 33.3467Z" fill="#0069F7"></path> <path d="M384.879 44.9469C384.879 41.6941 383.476 39.5156 380.522 39.5156H367.899V40.3512V46.618H376.971V46.7076V75.4753H365.094V82.6076H396.756V75.4753H384.879V44.9469Z" fill="#0069F7"></path> <path d="M429.448 39.5156C420.287 39.5156 414.945 44.9469 413.244 52.5865H412.408V47.2447V40.381H404.172V82.6374H412.408V64.4935C412.408 53.0341 418.347 46.6777 427.001 46.6777C434.133 46.6777 437.267 49.9902 437.267 58.5549V82.6374H445.593V57.3612C445.563 45.3945 439.296 39.5156 429.448 39.5156Z" fill="#0069F7"></path> <path d="M123.727 48.6728V41.3018L94.1233 53.0297C90.4825 54.492 88.125 57.9536 88.125 61.8928C88.125 65.832 90.4825 69.2936 94.1233 70.7559L123.727 82.7823V75.471L91.1092 62.2807V61.5049L123.727 48.6728Z" fill="#0069F7"></path> <path d="M35.6315 62.1912C35.6315 58.2521 33.2739 54.7904 29.6332 53.3281L0 41.3018V48.6131L32.6174 61.8033V62.5792L0 75.3814V82.7524L29.6034 71.0245C33.2739 69.5921 35.6315 66.1304 35.6315 62.1912Z" fill="#A6A8AB"></path> <path d="M80.5715 80.4449C77.7962 83.2203 76.9904 87.3385 78.5422 90.9494L90.9565 120.403L96.1192 115.241L82.3918 82.8621L82.9588 82.2951L115.069 96.2911L120.291 91.0687L91.0759 78.4157C87.465 76.8937 83.3468 77.6696 80.5715 80.4449Z" fill="#A6A8AB"></path> <path d="M36.4936 46.3663C38.9705 46.3663 41.3877 45.4113 43.2379 43.5611C46.0132 40.7858 46.819 36.6676 45.2672 33.0567L32.8529 3.60254L27.6604 8.76522L41.3877 41.1439L40.8207 41.7109L8.71065 27.7149L3.48828 32.9373L32.7037 45.5904C33.9272 46.0977 35.2104 46.3663 36.4936 46.3663Z" fill="#A6A8AB"></path> <path d="M62.0496 88.2715C58.1105 88.2715 54.6488 90.629 53.1865 94.2697L41.1602 123.873H48.4715L61.6617 91.2557H62.4376L75.2697 123.873H82.6407L70.9127 94.2697C69.4505 90.629 65.9888 88.2715 62.0496 88.2715Z" fill="#A6A8AB"></path> <path d="M61.7214 35.7599C65.6605 35.7599 69.1222 33.4024 70.5845 29.7616L82.6407 0.128418H75.3293L62.1391 32.7458H61.3633L48.5312 0.128418H41.1602L52.8881 29.7318C54.3205 33.4024 57.812 35.7599 61.7214 35.7599Z" fill="#A6A8AB"></path> <path d="M43.4468 80.6965C40.6715 77.9212 36.5533 77.1154 32.9424 78.6672L3.48828 91.0815L8.65096 96.2442L41.0296 82.5168L41.5966 83.0838L27.6007 115.224L32.8231 120.446L45.4761 91.2307C47.0279 87.59 46.2222 83.4718 43.4468 80.6965Z" fill="#A6A8AB"></path> <path d="M80.3387 43.3639C82.1591 45.2141 84.6061 46.169 87.083 46.169C88.3662 46.169 89.6494 45.9004 90.873 45.3931L120.327 32.9788L115.164 27.8161L82.7858 41.5435L82.2188 40.9765L96.2147 8.86641L90.9923 3.64404L78.3393 32.8595C76.7875 36.4405 77.5634 40.5886 80.3387 43.3639Z" fill="#A6A8AB"></path> </svg> 